<?xml version="1.0" encoding="UTF-8" standalone="no"?>
<!DOCTYPE svg PUBLIC "-//W3C//DTD SVG 1.1//EN"
 "http://www.w3.org/Graphics/SVG/1.1/DTD/svg11.dtd">
<!-- Generated by graphviz version 2.38.0 (20140413.2041)
 -->
<!-- Title: snakemake_dag Pages: 1 -->
<svg width="147pt" height="332pt"
 viewBox="0.00 0.00 146.50 332.00" xmlns="http://www.w3.org/2000/svg" xmlns:xlink="http://www.w3.org/1999/xlink">
<g id="graph0" class="graph" transform="scale(1 1) rotate(0) translate(4 328)">
<title>snakemake_dag</title>
<polygon fill="white" stroke="none" points="-4,4 -4,-328 142.5,-328 142.5,4 -4,4"/>
<!-- 0 -->
<g id="node1" class="node"><title>0</title>
<path fill="none" stroke="#56a2d8" stroke-width="2" d="M87.5,-36C87.5,-36 57.5,-36 57.5,-36 51.5,-36 45.5,-30 45.5,-24 45.5,-24 45.5,-12 45.5,-12 45.5,-6 51.5,-0 57.5,-0 57.5,-0 87.5,-0 87.5,-0 93.5,-0 99.5,-6 99.5,-12 99.5,-12 99.5,-24 99.5,-24 99.5,-30 93.5,-36 87.5,-36"/>
<text text-anchor="middle" x="72.5" y="-15.5" font-family="sans" font-size="10.00">all</text>
</g>
<!-- 1 -->
<g id="node2" class="node"><title>1</title>
<path fill="none" stroke="#c6d856" stroke-width="2" d="M65,-108C65,-108 12,-108 12,-108 6,-108 0,-102 0,-96 0,-96 0,-84 0,-84 0,-78 6,-72 12,-72 12,-72 65,-72 65,-72 71,-72 77,-78 77,-84 77,-84 77,-96 77,-96 77,-102 71,-108 65,-108"/>
<text text-anchor="middle" x="38.5" y="-87.5" font-family="sans" font-size="10.00">post_to_text</text>
</g>
<!-- 1&#45;&gt;0 -->
<g id="edge2" class="edge"><title>1&#45;&gt;0</title>
<path fill="none" stroke="grey" stroke-width="2" d="M46.9045,-71.6966C50.7748,-63.7284 55.4517,-54.0995 59.7431,-45.2641"/>
<polygon fill="grey" stroke="grey" stroke-width="2" points="62.9714,-46.6286 64.1922,-36.1043 56.6748,-43.5702 62.9714,-46.6286"/>
</g>
<!-- 2 -->
<g id="node3" class="node"><title>2</title>
<path fill="none" stroke="#56d8c9" stroke-width="2" d="M123.5,-180C123.5,-180 93.5,-180 93.5,-180 87.5,-180 81.5,-174 81.5,-168 81.5,-168 81.5,-156 81.5,-156 81.5,-150 87.5,-144 93.5,-144 93.5,-144 123.5,-144 123.5,-144 129.5,-144 135.5,-150 135.5,-156 135.5,-156 135.5,-168 135.5,-168 135.5,-174 129.5,-180 123.5,-180"/>
<text text-anchor="middle" x="108.5" y="-159.5" font-family="sans" font-size="10.00">max_lk</text>
</g>
<!-- 2&#45;&gt;0 -->
<g id="edge1" class="edge"><title>2&#45;&gt;0</title>
<path fill="none" stroke="grey" stroke-width="2" d="M104.158,-143.871C97.995,-119.564 86.6512,-74.8187 79.3484,-46.0132"/>
<polygon fill="grey" stroke="grey" stroke-width="2" points="82.7081,-45.0225 76.8578,-36.1893 75.9227,-46.7427 82.7081,-45.0225"/>
</g>
<!-- 3 -->
<g id="node4" class="node"><title>3</title>
<path fill="none" stroke="#d8a456" stroke-width="2" d="M51.5,-180C51.5,-180 21.5,-180 21.5,-180 15.5,-180 9.5,-174 9.5,-168 9.5,-168 9.5,-156 9.5,-156 9.5,-150 15.5,-144 21.5,-144 21.5,-144 51.5,-144 51.5,-144 57.5,-144 63.5,-150 63.5,-156 63.5,-156 63.5,-168 63.5,-168 63.5,-174 57.5,-180 51.5,-180"/>
<text text-anchor="middle" x="36.5" y="-159.5" font-family="sans" font-size="10.00">rjmcmc</text>
</g>
<!-- 3&#45;&gt;1 -->
<g id="edge3" class="edge"><title>3&#45;&gt;1</title>
<path fill="none" stroke="grey" stroke-width="2" d="M36.9944,-143.697C37.2148,-135.983 37.4796,-126.712 37.7254,-118.112"/>
<polygon fill="grey" stroke="grey" stroke-width="2" points="41.2242,-118.2 38.0113,-108.104 34.227,-118 41.2242,-118.2"/>
</g>
<!-- 4 -->
<g id="node5" class="node"><title>4</title>
<path fill="none" stroke="#56d87b" stroke-width="2" d="M54,-252C54,-252 13,-252 13,-252 7,-252 1,-246 1,-240 1,-240 1,-228 1,-228 1,-222 7,-216 13,-216 13,-216 54,-216 54,-216 60,-216 66,-222 66,-228 66,-228 66,-240 66,-240 66,-246 60,-252 54,-252"/>
<text text-anchor="middle" x="33.5" y="-231.5" font-family="sans" font-size="10.00">table_gen</text>
</g>
<!-- 4&#45;&gt;2 -->
<g id="edge5" class="edge"><title>4&#45;&gt;2</title>
<path fill="none" stroke="grey" stroke-width="2" d="M52.0393,-215.697C61.3033,-207.05 72.6623,-196.449 82.7567,-187.027"/>
<polygon fill="grey" stroke="grey" stroke-width="2" points="85.2515,-189.486 90.1739,-180.104 80.4752,-184.369 85.2515,-189.486"/>
</g>
<!-- 4&#45;&gt;3 -->
<g id="edge7" class="edge"><title>4&#45;&gt;3</title>
<path fill="none" stroke="grey" stroke-width="2" d="M34.2416,-215.697C34.5722,-207.983 34.9695,-198.712 35.338,-190.112"/>
<polygon fill="grey" stroke="grey" stroke-width="2" points="38.8355,-190.245 35.767,-180.104 31.8419,-189.945 38.8355,-190.245"/>
</g>
<!-- 5 -->
<g id="node6" class="node"><title>5</title>
<path fill="none" stroke="#78d856" stroke-width="2" d="M126.5,-252C126.5,-252 96.5,-252 96.5,-252 90.5,-252 84.5,-246 84.5,-240 84.5,-240 84.5,-228 84.5,-228 84.5,-222 90.5,-216 96.5,-216 96.5,-216 126.5,-216 126.5,-216 132.5,-216 138.5,-222 138.5,-228 138.5,-228 138.5,-240 138.5,-240 138.5,-246 132.5,-252 126.5,-252"/>
<text text-anchor="middle" x="111.5" y="-231.5" font-family="sans" font-size="10.00">pade</text>
</g>
<!-- 5&#45;&gt;2 -->
<g id="edge4" class="edge"><title>5&#45;&gt;2</title>
<path fill="none" stroke="grey" stroke-width="2" d="M110.758,-215.697C110.428,-207.983 110.031,-198.712 109.662,-190.112"/>
<polygon fill="grey" stroke="grey" stroke-width="2" points="113.158,-189.945 109.233,-180.104 106.165,-190.245 113.158,-189.945"/>
</g>
<!-- 5&#45;&gt;3 -->
<g id="edge6" class="edge"><title>5&#45;&gt;3</title>
<path fill="none" stroke="grey" stroke-width="2" d="M92.9607,-215.697C83.6967,-207.05 72.3377,-196.449 62.2433,-187.027"/>
<polygon fill="grey" stroke="grey" stroke-width="2" points="64.5248,-184.369 54.8261,-180.104 59.7485,-189.486 64.5248,-184.369"/>
</g>
<!-- 6 -->
<g id="node7" class="node"><title>6</title>
<path fill="none" stroke="#d85656" stroke-width="2" d="M94,-324C94,-324 51,-324 51,-324 45,-324 39,-318 39,-312 39,-312 39,-300 39,-300 39,-294 45,-288 51,-288 51,-288 94,-288 94,-288 100,-288 106,-294 106,-300 106,-300 106,-312 106,-312 106,-318 100,-324 94,-324"/>
<text text-anchor="middle" x="72.5" y="-303.5" font-family="sans" font-size="10.00">find_confs</text>
</g>
<!-- 6&#45;&gt;4 -->
<g id="edge8" class="edge"><title>6&#45;&gt;4</title>
<path fill="none" stroke="grey" stroke-width="2" d="M62.8595,-287.697C58.3729,-279.644 52.9412,-269.894 47.9759,-260.982"/>
<polygon fill="grey" stroke="grey" stroke-width="2" points="50.9541,-259.137 43.0296,-252.104 44.8391,-262.544 50.9541,-259.137"/>
</g>
<!-- 6&#45;&gt;5 -->
<g id="edge9" class="edge"><title>6&#45;&gt;5</title>
<path fill="none" stroke="grey" stroke-width="2" d="M82.1405,-287.697C86.6271,-279.644 92.0588,-269.894 97.0241,-260.982"/>
<polygon fill="grey" stroke="grey" stroke-width="2" points="100.161,-262.544 101.97,-252.104 94.0459,-259.137 100.161,-262.544"/>
</g>
</g>
</svg>
