<?xml version="1.0" encoding="UTF-8" standalone="no"?>
<!DOCTYPE svg PUBLIC "-//W3C//DTD SVG 1.1//EN"
 "http://www.w3.org/Graphics/SVG/1.1/DTD/svg11.dtd">
<!-- Generated by graphviz version 2.38.0 (20140413.2041)
 -->
<!-- Title: snakemake_dag Pages: 1 -->
<svg width="254pt" height="188pt"
 viewBox="0.00 0.00 253.50 188.00" xmlns="http://www.w3.org/2000/svg" xmlns:xlink="http://www.w3.org/1999/xlink">
<g id="graph0" class="graph" transform="scale(1 1) rotate(0) translate(4 184)">
<title>snakemake_dag</title>
<polygon fill="white" stroke="none" points="-4,4 -4,-184 249.5,-184 249.5,4 -4,4"/>
<!-- 0 -->
<g id="node1" class="node"><title>0</title>
<path fill="none" stroke="#56d88a" stroke-width="2" d="M130.5,-36C130.5,-36 100.5,-36 100.5,-36 94.5,-36 88.5,-30 88.5,-24 88.5,-24 88.5,-12 88.5,-12 88.5,-6 94.5,-0 100.5,-0 100.5,-0 130.5,-0 130.5,-0 136.5,-0 142.5,-6 142.5,-12 142.5,-12 142.5,-24 142.5,-24 142.5,-30 136.5,-36 130.5,-36"/>
<text text-anchor="middle" x="115.5" y="-15.5" font-family="sans" font-size="10.00">all</text>
</g>
<!-- 1 -->
<g id="node2" class="node"><title>1</title>
<path fill="none" stroke="#d85656" stroke-width="2" d="M47,-108C47,-108 12,-108 12,-108 6,-108 0,-102 0,-96 0,-96 0,-84 0,-84 0,-78 6,-72 12,-72 12,-72 47,-72 47,-72 53,-72 59,-78 59,-84 59,-84 59,-96 59,-96 59,-102 53,-108 47,-108"/>
<text text-anchor="middle" x="29.5" y="-87.5" font-family="sans" font-size="10.00">optimize</text>
</g>
<!-- 1&#45;&gt;0 -->
<g id="edge1" class="edge"><title>1&#45;&gt;0</title>
<path fill="none" stroke="grey" stroke-width="2" d="M50.7584,-71.6966C61.5894,-62.8807 74.9178,-52.0321 86.6602,-42.4742"/>
<polygon fill="grey" stroke="grey" stroke-width="2" points="88.9399,-45.1316 94.4861,-36.1043 84.521,-39.7026 88.9399,-45.1316"/>
</g>
<!-- 2 -->
<g id="node3" class="node"><title>2</title>
<path fill="none" stroke="#d8bc56" stroke-width="2" d="M141.5,-108C141.5,-108 89.5,-108 89.5,-108 83.5,-108 77.5,-102 77.5,-96 77.5,-96 77.5,-84 77.5,-84 77.5,-78 83.5,-72 89.5,-72 89.5,-72 141.5,-72 141.5,-72 147.5,-72 153.5,-78 153.5,-84 153.5,-84 153.5,-96 153.5,-96 153.5,-102 147.5,-108 141.5,-108"/>
<text text-anchor="middle" x="115.5" y="-87.5" font-family="sans" font-size="10.00">hyperparam</text>
</g>
<!-- 2&#45;&gt;0 -->
<g id="edge2" class="edge"><title>2&#45;&gt;0</title>
<path fill="none" stroke="grey" stroke-width="2" d="M115.5,-71.6966C115.5,-63.9827 115.5,-54.7125 115.5,-46.1124"/>
<polygon fill="grey" stroke="grey" stroke-width="2" points="119,-46.1043 115.5,-36.1043 112,-46.1044 119,-46.1043"/>
</g>
<!-- 3 -->
<g id="node4" class="node"><title>3</title>
<path fill="none" stroke="#56c1d8" stroke-width="2" d="M233.5,-108C233.5,-108 183.5,-108 183.5,-108 177.5,-108 171.5,-102 171.5,-96 171.5,-96 171.5,-84 171.5,-84 171.5,-78 177.5,-72 183.5,-72 183.5,-72 233.5,-72 233.5,-72 239.5,-72 245.5,-78 245.5,-84 245.5,-84 245.5,-96 245.5,-96 245.5,-102 239.5,-108 233.5,-108"/>
<text text-anchor="middle" x="208.5" y="-87.5" font-family="sans" font-size="10.00">compute_r2</text>
</g>
<!-- 3&#45;&gt;0 -->
<g id="edge3" class="edge"><title>3&#45;&gt;0</title>
<path fill="none" stroke="grey" stroke-width="2" d="M185.511,-71.6966C173.686,-62.796 159.108,-51.8232 146.321,-42.1989"/>
<polygon fill="grey" stroke="grey" stroke-width="2" points="148.319,-39.3217 138.224,-36.1043 144.109,-44.9145 148.319,-39.3217"/>
</g>
<!-- 4 -->
<g id="node5" class="node"><title>4</title>
<path fill="none" stroke="#88d856" stroke-width="2" d="M140.5,-180C140.5,-180 90.5,-180 90.5,-180 84.5,-180 78.5,-174 78.5,-168 78.5,-168 78.5,-156 78.5,-156 78.5,-150 84.5,-144 90.5,-144 90.5,-144 140.5,-144 140.5,-144 146.5,-144 152.5,-150 152.5,-156 152.5,-156 152.5,-168 152.5,-168 152.5,-174 146.5,-180 140.5,-180"/>
<text text-anchor="middle" x="115.5" y="-159.5" font-family="sans" font-size="10.00">make_table</text>
</g>
<!-- 4&#45;&gt;1 -->
<g id="edge4" class="edge"><title>4&#45;&gt;1</title>
<path fill="none" stroke="grey" stroke-width="2" d="M94.2416,-143.697C83.4106,-134.881 70.0822,-124.032 58.3398,-114.474"/>
<polygon fill="grey" stroke="grey" stroke-width="2" points="60.479,-111.703 50.5139,-108.104 56.0601,-117.132 60.479,-111.703"/>
</g>
<!-- 4&#45;&gt;2 -->
<g id="edge5" class="edge"><title>4&#45;&gt;2</title>
<path fill="none" stroke="grey" stroke-width="2" d="M115.5,-143.697C115.5,-135.983 115.5,-126.712 115.5,-118.112"/>
<polygon fill="grey" stroke="grey" stroke-width="2" points="119,-118.104 115.5,-108.104 112,-118.104 119,-118.104"/>
</g>
<!-- 4&#45;&gt;3 -->
<g id="edge6" class="edge"><title>4&#45;&gt;3</title>
<path fill="none" stroke="grey" stroke-width="2" d="M138.489,-143.697C150.314,-134.796 164.892,-123.823 177.679,-114.199"/>
<polygon fill="grey" stroke="grey" stroke-width="2" points="179.891,-116.915 185.776,-108.104 175.681,-111.322 179.891,-116.915"/>
</g>
</g>
</svg>
