<?xml version="1.0" encoding="UTF-8" standalone="no"?>
<!DOCTYPE svg PUBLIC "-//W3C//DTD SVG 1.1//EN"
 "http://www.w3.org/Graphics/SVG/1.1/DTD/svg11.dtd">
<!-- Generated by graphviz version 2.40.1 (20161225.0304)
 -->
<!-- Title: snakemake_dag Pages: 1 -->
<svg width="106pt" height="260pt"
 viewBox="0.00 0.00 106.00 260.00" xmlns="http://www.w3.org/2000/svg" xmlns:xlink="http://www.w3.org/1999/xlink">
<g id="graph0" class="graph" transform="scale(1 1) rotate(0) translate(4 256)">
<title>snakemake_dag</title>
<polygon fill="#ffffff" stroke="transparent" points="-4,4 -4,-256 102,-256 102,4 -4,4"/>
<!-- 0 -->
<g id="node1" class="node">
<title>0</title>
<path fill="none" stroke="#59d856" stroke-width="2" d="M64,-36C64,-36 34,-36 34,-36 28,-36 22,-30 22,-24 22,-24 22,-12 22,-12 22,-6 28,0 34,0 34,0 64,0 64,0 70,0 76,-6 76,-12 76,-12 76,-24 76,-24 76,-30 70,-36 64,-36"/>
<text text-anchor="middle" x="49" y="-15.5" font-family="sans" font-size="10.00" fill="#000000">all</text>
</g>
<!-- 1 -->
<g id="node2" class="node">
<title>1</title>
<path fill="none" stroke="#56d8d8" stroke-width="2" d="M69.5,-108C69.5,-108 28.5,-108 28.5,-108 22.5,-108 16.5,-102 16.5,-96 16.5,-96 16.5,-84 16.5,-84 16.5,-78 22.5,-72 28.5,-72 28.5,-72 69.5,-72 69.5,-72 75.5,-72 81.5,-78 81.5,-84 81.5,-84 81.5,-96 81.5,-96 81.5,-102 75.5,-108 69.5,-108"/>
<text text-anchor="middle" x="49" y="-87.5" font-family="sans" font-size="10.00" fill="#000000">grenepool</text>
</g>
<!-- 1&#45;&gt;0 -->
<g id="edge1" class="edge">
<title>1&#45;&gt;0</title>
<path fill="none" stroke="#c0c0c0" stroke-width="2" d="M49,-71.8314C49,-64.131 49,-54.9743 49,-46.4166"/>
<polygon fill="#c0c0c0" stroke="#c0c0c0" stroke-width="2" points="52.5001,-46.4132 49,-36.4133 45.5001,-46.4133 52.5001,-46.4132"/>
</g>
<!-- 2 -->
<g id="node3" class="node">
<title>2</title>
<path fill="none" stroke="#d6d856" stroke-width="2" d="M66,-180C66,-180 32,-180 32,-180 26,-180 20,-174 20,-168 20,-168 20,-156 20,-156 20,-150 26,-144 32,-144 32,-144 66,-144 66,-144 72,-144 78,-150 78,-156 78,-156 78,-168 78,-168 78,-174 72,-180 66,-180"/>
<text text-anchor="middle" x="49" y="-159.5" font-family="sans" font-size="10.00" fill="#000000">bamfreq</text>
</g>
<!-- 2&#45;&gt;1 -->
<g id="edge2" class="edge">
<title>2&#45;&gt;1</title>
<path fill="none" stroke="#c0c0c0" stroke-width="2" d="M49,-143.8314C49,-136.131 49,-126.9743 49,-118.4166"/>
<polygon fill="#c0c0c0" stroke="#c0c0c0" stroke-width="2" points="52.5001,-118.4132 49,-108.4133 45.5001,-118.4133 52.5001,-118.4132"/>
</g>
<!-- 3 -->
<g id="node4" class="node">
<title>3</title>
<path fill="none" stroke="#d85656" stroke-width="2" d="M86,-252C86,-252 12,-252 12,-252 6,-252 0,-246 0,-240 0,-240 0,-228 0,-228 0,-222 6,-216 12,-216 12,-216 86,-216 86,-216 92,-216 98,-222 98,-228 98,-228 98,-240 98,-240 98,-246 92,-252 86,-252"/>
<text text-anchor="middle" x="49" y="-231.5" font-family="sans" font-size="10.00" fill="#000000">samtools_merge</text>
</g>
<!-- 3&#45;&gt;2 -->
<g id="edge3" class="edge">
<title>3&#45;&gt;2</title>
<path fill="none" stroke="#c0c0c0" stroke-width="2" d="M49,-215.8314C49,-208.131 49,-198.9743 49,-190.4166"/>
<polygon fill="#c0c0c0" stroke="#c0c0c0" stroke-width="2" points="52.5001,-190.4132 49,-180.4133 45.5001,-190.4133 52.5001,-190.4132"/>
</g>
</g>
</svg>
