<?xml version="1.0" encoding="UTF-8" standalone="no"?>
<!DOCTYPE svg PUBLIC "-//W3C//DTD SVG 1.1//EN"
 "http://www.w3.org/Graphics/SVG/1.1/DTD/svg11.dtd">
<!-- Generated by graphviz version 2.38.0 (20140413.2041)
 -->
<!-- Title: snakemake_dag Pages: 1 -->
<svg width="85pt" height="332pt"
 viewBox="0.00 0.00 85.00 332.00" xmlns="http://www.w3.org/2000/svg" xmlns:xlink="http://www.w3.org/1999/xlink">
<g id="graph0" class="graph" transform="scale(1 1) rotate(0) translate(4 328)">
<title>snakemake_dag</title>
<polygon fill="white" stroke="none" points="-4,4 -4,-328 81,-328 81,4 -4,4"/>
<!-- 0 -->
<g id="node1" class="node"><title>0</title>
<path fill="none" stroke="#d89556" stroke-width="2" d="M53.5,-36C53.5,-36 23.5,-36 23.5,-36 17.5,-36 11.5,-30 11.5,-24 11.5,-24 11.5,-12 11.5,-12 11.5,-6 17.5,-0 23.5,-0 23.5,-0 53.5,-0 53.5,-0 59.5,-0 65.5,-6 65.5,-12 65.5,-12 65.5,-24 65.5,-24 65.5,-30 59.5,-36 53.5,-36"/>
<text text-anchor="middle" x="38.5" y="-15.5" font-family="sans" font-size="10.00">all</text>
</g>
<!-- 1 -->
<g id="node2" class="node"><title>1</title>
<path fill="none" stroke="#d85656" stroke-width="2" d="M53.5,-108C53.5,-108 23.5,-108 23.5,-108 17.5,-108 11.5,-102 11.5,-96 11.5,-96 11.5,-84 11.5,-84 11.5,-78 17.5,-72 23.5,-72 23.5,-72 53.5,-72 53.5,-72 59.5,-72 65.5,-78 65.5,-84 65.5,-84 65.5,-96 65.5,-96 65.5,-102 59.5,-108 53.5,-108"/>
<text text-anchor="middle" x="38.5" y="-87.5" font-family="sans" font-size="10.00">plot</text>
</g>
<!-- 1&#45;&gt;0 -->
<g id="edge1" class="edge"><title>1&#45;&gt;0</title>
<path fill="none" stroke="grey" stroke-width="2" d="M38.5,-71.6966C38.5,-63.9827 38.5,-54.7125 38.5,-46.1124"/>
<polygon fill="grey" stroke="grey" stroke-width="2" points="42.0001,-46.1043 38.5,-36.1043 35.0001,-46.1044 42.0001,-46.1043"/>
</g>
<!-- 2 -->
<g id="node3" class="node"><title>2</title>
<path fill="none" stroke="#56d8d8" stroke-width="2" d="M65,-180C65,-180 12,-180 12,-180 6,-180 0,-174 0,-168 0,-168 0,-156 0,-156 0,-150 6,-144 12,-144 12,-144 65,-144 65,-144 71,-144 77,-150 77,-156 77,-156 77,-168 77,-168 77,-174 71,-180 65,-180"/>
<text text-anchor="middle" x="38.5" y="-159.5" font-family="sans" font-size="10.00">estimate_cv</text>
</g>
<!-- 2&#45;&gt;1 -->
<g id="edge2" class="edge"><title>2&#45;&gt;1</title>
<path fill="none" stroke="grey" stroke-width="2" d="M38.5,-143.697C38.5,-135.983 38.5,-126.712 38.5,-118.112"/>
<polygon fill="grey" stroke="grey" stroke-width="2" points="42.0001,-118.104 38.5,-108.104 35.0001,-118.104 42.0001,-118.104"/>
</g>
<!-- 3 -->
<g id="node4" class="node"><title>3</title>
<path fill="none" stroke="#569ad8" stroke-width="2" d="M62.5,-252C62.5,-252 14.5,-252 14.5,-252 8.5,-252 2.5,-246 2.5,-240 2.5,-240 2.5,-228 2.5,-228 2.5,-222 8.5,-216 14.5,-216 14.5,-216 62.5,-216 62.5,-216 68.5,-216 74.5,-222 74.5,-228 74.5,-228 74.5,-240 74.5,-240 74.5,-246 68.5,-252 62.5,-252"/>
<text text-anchor="middle" x="38.5" y="-231.5" font-family="sans" font-size="10.00">vcf_to_smc</text>
</g>
<!-- 3&#45;&gt;2 -->
<g id="edge3" class="edge"><title>3&#45;&gt;2</title>
<path fill="none" stroke="grey" stroke-width="2" d="M38.5,-215.697C38.5,-207.983 38.5,-198.712 38.5,-190.112"/>
<polygon fill="grey" stroke="grey" stroke-width="2" points="42.0001,-190.104 38.5,-180.104 35.0001,-190.104 42.0001,-190.104"/>
</g>
<!-- 4 -->
<g id="node5" class="node"><title>4</title>
<path fill="none" stroke="#59d856" stroke-width="2" d="M58.5,-324C58.5,-324 18.5,-324 18.5,-324 12.5,-324 6.5,-318 6.5,-312 6.5,-312 6.5,-300 6.5,-300 6.5,-294 12.5,-288 18.5,-288 18.5,-288 58.5,-288 58.5,-288 64.5,-288 70.5,-294 70.5,-300 70.5,-300 70.5,-312 70.5,-312 70.5,-318 64.5,-324 58.5,-324"/>
<text text-anchor="middle" x="38.5" y="-303.5" font-family="sans" font-size="10.00">vcf_index</text>
</g>
<!-- 4&#45;&gt;3 -->
<g id="edge4" class="edge"><title>4&#45;&gt;3</title>
<path fill="none" stroke="grey" stroke-width="2" d="M38.5,-287.697C38.5,-279.983 38.5,-270.712 38.5,-262.112"/>
<polygon fill="grey" stroke="grey" stroke-width="2" points="42.0001,-262.104 38.5,-252.104 35.0001,-262.104 42.0001,-262.104"/>
</g>
</g>
</svg>
